<?xml version="1.0" encoding="UTF-8"?>
<svg version="1.1" xmlns="http://www.w3.org/2000/svg" width="1080" height="1080">
<path d="M0 0 C1.10905463 -0.00218016 1.10905463 -0.00218016 2.2405144 -0.00440437 C4.70770057 -0.00804159 7.17482406 -0.00458852 9.64200974 -0.0011425 C11.4330736 -0.00229524 13.22413724 -0.00388379 15.01520038 -0.00586975 C19.9296059 -0.01004254 24.84399199 -0.00798156 29.75839758 -0.00488353 C35.06203054 -0.00262112 40.36566015 -0.00611337 45.66929245 -0.00886345 C56.05963291 -0.0133122 66.44996616 -0.01234832 76.84030691 -0.00945081 C85.29150938 -0.00719182 93.74270982 -0.00688641 102.19391251 -0.00797462 C103.39711163 -0.00812786 104.60031075 -0.00828109 105.83997045 -0.00843897 C108.28445556 -0.0087587 110.72894066 -0.00908291 113.17342576 -0.00941156 C136.10499188 -0.01226411 159.03655401 -0.00898361 181.96811947 -0.00361119 C201.61664073 0.00084981 221.26515607 0.00008629 240.91367722 -0.00452995 C263.74496392 -0.00989147 286.57624711 -0.01198225 309.40753436 -0.00891769 C311.84666236 -0.00859916 314.28579036 -0.00828478 316.72491837 -0.00797462 C317.9248963 -0.00782035 319.12487423 -0.00766607 320.36121513 -0.00750712 C328.78974716 -0.00664619 337.21827694 -0.00809586 345.64680862 -0.01045418 C355.93734759 -0.0132702 366.22787893 -0.01247636 376.51841703 -0.00717343 C381.76234459 -0.0045596 387.00625948 -0.00349163 392.25018692 -0.00682259 C397.06448992 -0.00983414 401.8787687 -0.0081131 406.69306955 -0.00284503 C408.42130378 -0.00174126 410.14954012 -0.00226578 411.87777296 -0.00472082 C424.03456465 -0.02064525 436.12588454 0.42493391 448.26231003 1.12584114 C448.26231003 2.11584114 448.26231003 3.10584114 448.26231003 4.12584114 C447.60231003 4.12584114 446.94231003 4.12584114 446.26231003 4.12584114 C446.26231003 4.78584114 446.26231003 5.44584114 446.26231003 6.12584114 C445.60231003 6.12584114 444.94231003 6.12584114 444.26231003 6.12584114 C444.26231003 6.78584114 444.26231003 7.44584114 444.26231003 8.12584114 C443.60231003 8.12584114 442.94231003 8.12584114 442.26231003 8.12584114 C442.26231003 8.78584114 442.26231003 9.44584114 442.26231003 10.12584114 C441.20051047 11.02253158 440.09797432 11.87097348 438.98276901 12.70030403 C435.36025678 15.72383861 433.0893009 18.82923005 430.67438412 22.80659389 C423.2984638 34.69187026 413.24290197 46.83714509 399.22224331 50.68584347 C374.64427942 56.01702042 347.65386626 53.4420845 322.72508204 52.50272596 C312.62744077 52.1289926 302.52894683 51.95121532 292.42607772 51.78652012 C271.69712905 51.44437562 250.98060651 50.86653484 230.26231003 50.12584114 C231.3639512 52.35628725 232.46852897 54.5851976 233.57481003 56.81334114 C233.8835405 57.43918098 234.19227097 58.06502083 234.5103569 58.70982552 C235.89081605 61.48527496 237.30542657 64.19732652 238.90684128 66.85240364 C240.43541143 69.41617259 241.37228361 72.06644849 242.36777878 74.87193489 C243.73882729 78.32649818 245.51003292 81.5611508 247.27402878 84.82896614 C248.26231003 87.12584114 248.26231003 87.12584114 248.26231003 91.12584114 C248.92231003 91.12584114 249.58231003 91.12584114 250.26231003 91.12584114 C250.53172409 91.82709114 250.80113815 92.52834114 251.07871628 93.25084114 C252.32761046 96.28445868 253.72976854 99.19323929 255.19981003 102.12584114 C255.70383347 103.13646614 256.2078569 104.14709114 256.72715378 105.18834114 C258.20416145 108.12274528 258.20416145 108.12274528 259.95371628 110.75084114 C261.26231003 113.12584114 261.26231003 113.12584114 261.26231003 117.12584114 C261.92231003 117.12584114 262.58231003 117.12584114 263.26231003 117.12584114 C263.26231003 118.44584114 263.26231003 119.76584114 263.26231003 121.12584114 C263.92231003 121.12584114 264.58231003 121.12584114 265.26231003 121.12584114 C265.26231003 122.44584114 265.26231003 123.76584114 265.26231003 125.12584114 C265.92231003 125.12584114 266.58231003 125.12584114 267.26231003 125.12584114 C267.26231003 126.44584114 267.26231003 127.76584114 267.26231003 129.12584114 C267.92231003 129.12584114 268.58231003 129.12584114 269.26231003 129.12584114 C269.67352097 130.27568489 270.0847319 131.42552864 270.50840378 132.61021614 C272.16372031 137.02309756 274.17753741 141.18487492 276.32481003 145.37584114 C276.67607956 146.06935677 277.02734909 146.76287239 277.38926315 147.47740364 C277.9006987 148.48673958 277.9006987 148.48673958 278.42246628 149.51646614 C278.74360397 150.15132942 279.06474167 150.7861927 279.39561081 151.44029427 C280.07438075 152.7603584 280.78542343 154.06383758 281.50840378 155.36021614 C282.26231003 157.12584114 282.26231003 157.12584114 282.26231003 161.12584114 C282.92231003 161.12584114 283.58231003 161.12584114 284.26231003 161.12584114 C284.26231003 162.44584114 284.26231003 163.76584114 284.26231003 165.12584114 C284.92231003 165.12584114 285.58231003 165.12584114 286.26231003 165.12584114 C286.26231003 166.44584114 286.26231003 167.76584114 286.26231003 169.12584114 C286.92231003 169.12584114 287.58231003 169.12584114 288.26231003 169.12584114 C288.59231003 170.13646614 288.92231003 171.14709114 289.26231003 172.18834114 C290.81319775 176.33860407 292.83320054 180.18103373 294.94981003 184.06334114 C297.98180569 189.63212535 300.82477465 195.25751869 303.51231003 201.00084114 C303.82901657 201.67751839 304.14572311 202.35419563 304.47202682 203.05137825 C306.05854957 206.46699987 307.60932892 209.89676799 309.13340378 213.34068489 C315.32364462 227.3159405 321.68887794 241.23482195 328.62559128 254.85630989 C330.91124838 259.42216907 333.05720939 264.05017304 335.21470261 268.67759895 C337.46085795 273.47529612 339.80023418 278.21580956 342.19981003 282.93834114 C345.22577089 288.90034605 347.99870654 294.94788863 350.69981003 301.06334114 C354.27288358 309.14088394 358.20288913 316.95784197 362.41465378 324.71959114 C363.32924362 326.40568489 363.32924362 326.40568489 364.26231003 328.12584114 C364.67609909 328.85802864 365.08988815 329.59021614 365.51621628 330.34459114 C366.26231003 332.12584114 366.26231003 332.12584114 366.26231003 336.12584114 C366.92231003 336.12584114 367.58231003 336.12584114 368.26231003 336.12584114 C368.26231003 337.11584114 368.26231003 338.10584114 368.26231003 339.12584114 C355.32761526 339.21853434 342.39299954 339.28960299 329.45804024 339.33308983 C323.4517595 339.35396169 317.44570605 339.3822726 311.43955612 339.42759895 C305.64293942 339.47107012 299.84654131 339.49498127 294.04977417 339.50535011 C291.83857533 339.51273913 289.62738841 339.5271681 287.41628265 339.54876137 C284.31830903 339.57781154 281.22123786 339.58179637 278.12314987 339.5799427 C276.75289658 339.60151436 276.75289658 339.60151436 275.3549614 339.6235218 C269.7322069 339.58713375 266.53787305 338.88647987 262.26231003 335.12584114 C262.26231003 334.46584114 262.26231003 333.80584114 262.26231003 333.12584114 C261.70414597 332.87576302 261.1459819 332.62568489 260.57090378 332.36802864 C257.88229669 330.92136696 255.68911768 329.18163167 253.32481003 327.25084114 C252.49078659 326.57279427 251.65676315 325.89474739 250.79746628 325.19615364 C249.96086472 324.51295052 249.12426315 323.82974739 248.26231003 323.12584114 C244.93930726 320.35217678 244.93930726 320.35217678 241.26231003 318.12584114 C241.26231003 317.46584114 241.26231003 316.80584114 241.26231003 316.12584114 C240.6925444 315.86416145 240.12277878 315.60248177 239.53574753 315.33287239 C237.08799669 314.03329334 235.05976561 312.53224898 232.88731003 310.81334114 C232.10227097 310.19330208 231.3172319 309.57326302 230.50840378 308.93443489 C227.73088202 306.69792607 224.99655171 304.41497371 222.26231003 302.12584114 C221.47856003 301.58959114 220.69481003 301.05334114 219.88731003 300.50084114 C219.08293503 299.82021614 219.08293503 299.82021614 218.26231003 299.12584114 C218.26231003 298.13584114 218.26231003 297.14584114 218.26231003 296.12584114 C243.01231003 296.12584114 267.76231003 296.12584114 293.26231003 296.12584114 C291.28231003 292.16584114 289.30231003 288.20584114 287.26231003 284.12584114 C287.26231003 282.80584114 287.26231003 281.48584114 287.26231003 280.12584114 C286.60231003 280.12584114 285.94231003 280.12584114 285.26231003 280.12584114 C285.00836472 279.46197395 284.7544194 278.79810677 284.49277878 278.11412239 C282.70352459 273.52371372 280.85642194 269.32583185 278.26231003 265.12584114 C278.14371628 264.55607552 278.02512253 263.98630989 277.90293503 263.39927864 C276.6658389 259.00909604 274.00570141 255.16253588 271.75840378 251.21959114 C270.26231003 248.12584114 270.26231003 248.12584114 270.26231003 244.12584114 C269.60231003 244.12584114 268.94231003 244.12584114 268.26231003 244.12584114 C267.63775925 242.38560677 267.63775925 242.38560677 267.00059128 240.61021614 C265.41327535 236.38109322 263.50879936 232.39206742 261.44981003 228.37584114 C261.10305222 227.68844856 260.7562944 227.00105598 260.39902878 226.29283333 C258.75601246 223.03851333 257.09324014 219.79537711 255.40684128 216.56334114 C254.86414597 215.51146614 254.32145065 214.45959114 253.76231003 213.37584114 C253.27762253 212.45287239 252.79293503 211.52990364 252.29356003 210.57896614 C251.26231003 208.12584114 251.26231003 208.12584114 251.26231003 204.12584114 C250.60231003 204.12584114 249.94231003 204.12584114 249.26231003 204.12584114 C248.63775925 202.38560677 248.63775925 202.38560677 248.00059128 200.61021614 C246.41327535 196.38109322 244.50879936 192.39206742 242.44981003 188.37584114 C242.10305222 187.68844856 241.7562944 187.00105598 241.39902878 186.29283333 C239.75601246 183.03851333 238.09324014 179.79537711 236.40684128 176.56334114 C235.86414597 175.51146614 235.32145065 174.45959114 234.76231003 173.37584114 C234.27762253 172.45287239 233.79293503 171.52990364 233.29356003 170.57896614 C232.26231003 168.12584114 232.26231003 168.12584114 232.26231003 164.12584114 C231.60231003 164.12584114 230.94231003 164.12584114 230.26231003 164.12584114 C230.26231003 162.80584114 230.26231003 161.48584114 230.26231003 160.12584114 C229.60231003 160.12584114 228.94231003 160.12584114 228.26231003 160.12584114 C228.26231003 158.80584114 228.26231003 157.48584114 228.26231003 156.12584114 C227.23136215 156.1369442 226.20041428 156.14804726 225.13822556 156.15948677 C215.42691421 156.26080439 205.71570994 156.33577841 196.00399017 156.384902 C191.01093408 156.41100609 186.01830432 156.44641901 181.02549362 156.50303841 C176.20792827 156.55732916 171.3907732 156.58725556 166.57292557 156.60022736 C164.73404861 156.60947253 162.89519434 156.62752633 161.05649185 156.65449142 C158.48235014 156.69074367 155.90990775 156.69578824 153.33555222 156.69346809 C152.19295692 156.72043266 152.19295692 156.72043266 151.0272789 156.74794197 C147.2480732 156.71103804 145.62975564 156.48472043 142.88053513 153.79959297 C140.94118186 150.59524931 139.06336255 147.38022665 137.32481003 144.06334114 C136.97418503 143.40140755 136.62356003 142.73947395 136.26231003 142.05748177 C133.7445977 137.23109226 131.62769178 132.31913626 129.62949753 127.25474739 C127.64403907 122.7108839 125.23685996 118.40803746 122.76426315 114.11216927 C121.85675857 112.4890325 121.05110895 110.80986423 120.26231003 109.12584114 C120.59231003 108.13584114 120.92231003 107.14584114 121.26231003 106.12584114 C148.32231003 105.79584114 175.38231003 105.46584114 203.26231003 105.12584114 C203.26231003 103.80584114 203.26231003 102.48584114 203.26231003 101.12584114 C202.60231003 101.12584114 201.94231003 101.12584114 201.26231003 101.12584114 C198.8506469 97.77048374 197.52534396 94.21619611 196.13731003 90.34849739 C195.18857752 87.93854741 194.07053774 85.67943758 192.88731003 83.37584114 C189.27741372 76.29825655 185.58409463 69.01344705 184.26231003 61.12584114 C183.60231003 61.12584114 182.94231003 61.12584114 182.26231003 61.12584114 C181.93231003 59.47584114 181.60231003 57.82584114 181.26231003 56.12584114 C180.60231003 56.12584114 179.94231003 56.12584114 179.26231003 56.12584114 C179.26231003 54.80584114 179.26231003 53.48584114 179.26231003 52.12584114 C178.60231003 52.12584114 177.94231003 52.12584114 177.26231003 52.12584114 C177.26231003 51.46584114 177.26231003 50.80584114 177.26231003 50.12584114 C176.30195847 50.15613411 175.3416069 50.18642708 174.35215378 50.21763802 C151.26112208 50.93141793 128.19866999 51.22970038 105.0962944 51.08873177 C103.61316002 51.08238716 103.61316002 51.08238716 102.10006332 51.07591438 C100.25951251 51.06783728 98.41897267 51.05557937 96.5784874 51.03807259 C91.05908869 51.01644163 85.73845146 51.42507161 80.26231003 52.12584114 C80.5693486 52.72638313 80.87638718 53.32692513 81.19272995 53.94566536 C82.51985903 56.65081548 83.52956665 59.42493884 84.57481003 62.25084114 C86.51311909 67.37928387 88.71058644 72.1991578 91.34434128 77.00474739 C92.26231003 79.12584114 92.26231003 79.12584114 92.26231003 83.12584114 C92.92231003 83.12584114 93.58231003 83.12584114 94.26231003 83.12584114 C94.26231003 84.44584114 94.26231003 85.76584114 94.26231003 87.12584114 C95.74731003 87.62084114 95.74731003 87.62084114 97.26231003 88.12584114 C97.26231003 88.78584114 97.26231003 89.44584114 97.26231003 90.12584114 C93.91998765 91.11972118 90.80557467 91.32316879 87.32481003 91.37584114 C86.30516159 91.40162239 85.28551315 91.42740364 84.23496628 91.45396614 C80.84282471 91.0795379 78.96729357 90.17824117 76.26231003 88.12584114 C76.26231003 87.46584114 76.26231003 86.80584114 76.26231003 86.12584114 C74.28231003 85.13584114 74.28231003 85.13584114 72.26231003 84.12584114 C72.26231003 83.46584114 72.26231003 82.80584114 72.26231003 82.12584114 C71.73637253 81.90670052 71.21043503 81.68755989 70.66856003 81.46177864 C67.36188146 79.62592788 64.61429887 77.2083372 61.76231003 74.75084114 C61.19383347 74.26873177 60.6253569 73.78662239 60.03965378 73.28990364 C53.84892462 68.00408385 53.84892462 68.00408385 51.26231003 65.12584114 C51.26231003 64.46584114 51.26231003 63.80584114 51.26231003 63.12584114 C50.60231003 63.12584114 49.94231003 63.12584114 49.26231003 63.12584114 C49.26231003 62.46584114 49.26231003 61.80584114 49.26231003 61.12584114 C48.68996628 60.87189583 48.11762253 60.61795052 47.52793503 60.35630989 C44.99637689 58.98141193 43.13616682 57.38266328 41.01231003 55.43834114 C40.2259819 54.72548958 39.43965378 54.01263802 38.62949753 53.27818489 C37.45773972 52.21277473 37.45773972 52.21277473 36.26231003 51.12584114 C34.89069967 49.91366151 33.51589071 48.70508769 32.13731003 47.50084114 C31.49020065 46.93365364 30.84309128 46.36646614 30.17637253 45.78209114 C28.9105834 44.68679606 27.63459242 43.60317016 26.34824753 42.53209114 C25.74238815 42.02677864 25.13652878 41.52146614 24.51231003 41.00084114 C23.98121628 40.56513802 23.45012253 40.12943489 22.90293503 39.68052864 C21.26231003 38.12584114 21.26231003 38.12584114 19.37949753 35.70787239 C17.16850295 33.01143804 14.8868562 31.07465034 12.13731003 28.93834114 C6.4701611 24.39241818 1.04547016 19.61454333 -3.73768997 14.12584114 C-3.73768997 13.46584114 -3.73768997 12.80584114 -3.73768997 12.12584114 C-4.29972122 11.87060677 -4.86175247 11.61537239 -5.44081497 11.35240364 C-8.03155479 9.96891333 -10.18876843 8.32645531 -12.48768997 6.50084114 C-13.28690872 5.86920052 -14.08612747 5.23755989 -14.90956497 4.58677864 C-15.51284622 4.10466927 -16.11612747 3.62255989 -16.73768997 3.12584114 C-16.40768997 2.46584114 -16.07768997 1.80584114 -15.73768997 1.12584114 C-10.4656791 0.21674975 -5.35387086 0.00066323 0 0 Z " fill="#FFFFFF" transform="translate(108.73768997192383,369.87415885925293)"/>
<path d="M0 0 C5.15934173 0.00231495 10.31868016 0.0025597 15.47802227 0.00148559 C16.22264576 0.00133236 16.96726926 0.00117913 17.7344571 0.00102125 C19.2490233 0.0007014 20.76358951 0.00037718 22.27815571 0.00004866 C36.37434007 -0.00278082 50.47051786 0.00043935 64.56670114 0.00584903 C76.53952201 0.01030261 88.51233315 0.0095481 100.48515384 0.00493027 C114.52325993 -0.00048192 128.56136028 -0.00249389 142.59946727 0.00054253 C144.11131307 0.00086093 145.62315888 0.00117531 147.13500469 0.00148559 C147.87805626 0.00163987 148.62110783 0.00179414 149.38667612 0.0019531 C154.50517842 0.00279949 159.62367689 0.00137862 164.74217861 -0.00099396 C199.06510153 -0.01557351 233.36381209 0.22930235 267.67631595 1.13530136 C267.67631595 2.12530136 267.67631595 3.11530136 267.67631595 4.13530136 C266.35631595 4.79530136 265.03631595 5.45530136 263.67631595 6.13530136 C263.67631595 6.79530136 263.67631595 7.45530136 263.67631595 8.13530136 C261.99662845 9.64311386 261.99662845 9.64311386 259.80131595 11.26030136 C259.08201908 11.79912948 258.3627222 12.33795761 257.62162845 12.89311386 C255.67631595 14.13530136 255.67631595 14.13530136 253.67631595 14.13530136 C253.40464603 14.73221786 253.13297611 15.32913437 252.85307376 15.94413925 C251.69864929 18.09371594 250.57059155 19.48576391 248.84819095 21.19389511 C248.01867923 22.02050644 248.01867923 22.02050644 247.1724097 22.86381698 C246.59619876 23.42778183 246.01998783 23.99174667 245.42631595 24.57280136 C244.86557376 25.13289902 244.30483158 25.69299667 243.7270972 26.27006698 C233.7582606 36.13530136 233.7582606 36.13530136 230.67631595 36.13530136 C230.67631595 36.79530136 230.67631595 37.45530136 230.67631595 38.13530136 C229.3833472 39.40483261 229.3833472 39.40483261 227.48881595 40.94780136 C222.84836774 44.86860787 218.63137035 49.14302351 214.42167728 53.51542831 C210.34571081 57.67988083 206.30430007 61.25930665 200.67631595 63.13530136 C200.67631595 63.79530136 200.67631595 64.45530136 200.67631595 65.13530136 C200.01631595 65.13530136 199.35631595 65.13530136 198.67631595 65.13530136 C198.67631595 65.79530136 198.67631595 66.45530136 198.67631595 67.13530136 C198.01631595 67.13530136 197.35631595 67.13530136 196.67631595 67.13530136 C196.2895972 68.00928573 196.2895972 68.00928573 195.89506595 68.90092636 C194.57797579 71.31559166 193.12543211 72.95270313 191.17631595 74.88530136 C190.56787845 75.49889511 189.95944095 76.11248886 189.33256595 76.74467636 C187.67631595 78.13530136 187.67631595 78.13530136 185.67631595 78.13530136 C185.67631595 78.79530136 185.67631595 79.45530136 185.67631595 80.13530136 C185.01631595 80.13530136 184.35631595 80.13530136 183.67631595 80.13530136 C183.67631595 80.79530136 183.67631595 81.45530136 183.67631595 82.13530136 C183.01631595 82.13530136 182.35631595 82.13530136 181.67631595 82.13530136 C181.67631595 82.79530136 181.67631595 83.45530136 181.67631595 84.13530136 C176.91658847 89.27689809 172.14299675 90.83833964 165.2895972 91.22514511 C162.64686042 91.13428869 160.24825836 90.73310419 157.67631595 90.13530136 C157.67631595 88.48530136 157.67631595 86.83530136 157.67631595 85.13530136 C158.33631595 85.13530136 158.99631595 85.13530136 159.67631595 85.13530136 C159.67631595 83.81530136 159.67631595 82.49530136 159.67631595 81.13530136 C160.33631595 81.13530136 160.99631595 81.13530136 161.67631595 81.13530136 C161.79233158 80.40955917 161.9083472 79.68381698 162.02787845 78.93608261 C162.69232518 76.06615306 163.66937767 73.91498255 165.05131595 71.32280136 C166.93721815 67.68068652 168.52997599 64.11342965 169.8052222 60.21733261 C171.13112952 57.04823575 172.97193571 54.11796679 174.67631595 51.13530136 C92.83631595 50.80530136 10.99631595 50.47530136 -73.32368405 50.13530136 C-73.32368405 50.79530136 -73.32368405 51.45530136 -73.32368405 52.13530136 C-74.58149655 53.36967636 -74.58149655 53.36967636 -76.44868405 54.88530136 C-80.75863315 58.54293384 -84.76524911 62.45492063 -88.76118405 66.44780136 C-89.70211911 67.38221054 -89.70211911 67.38221054 -90.66206295 68.33549667 C-91.25035885 68.92556503 -91.83865475 69.51563339 -92.4447778 70.12358261 C-93.24033078 70.92082748 -93.24033078 70.92082748 -94.05195553 71.73417831 C-95.4331199 73.12918541 -95.4331199 73.12918541 -96.32368405 75.13530136 C-96.98368405 75.13530136 -97.64368405 75.13530136 -98.32368405 75.13530136 C-98.65368405 76.12530136 -98.98368405 77.11530136 -99.32368405 78.13530136 C-99.98368405 78.13530136 -100.64368405 78.13530136 -101.32368405 78.13530136 C-101.32368405 78.79530136 -101.32368405 79.45530136 -101.32368405 80.13530136 C-101.98368405 80.13530136 -102.64368405 80.13530136 -103.32368405 80.13530136 C-103.32368405 80.79530136 -103.32368405 81.45530136 -103.32368405 82.13530136 C-103.98368405 82.13530136 -104.64368405 82.13530136 -105.32368405 82.13530136 C-105.59383831 82.7307727 -105.86399258 83.32624405 -106.14233334 83.93975998 C-107.31626396 86.12151111 -108.47481096 87.52862108 -110.22529538 89.26396347 C-110.80962841 89.84814544 -111.39396145 90.43232742 -111.99600155 91.03421188 C-112.62620709 91.65409485 -113.25641262 92.27397781 -113.9057153 92.91264511 C-114.55690838 93.5610083 -115.20810147 94.20937149 -115.87902768 94.87738205 C-117.96009132 96.94727132 -120.04798848 99.01010974 -122.13618405 101.07280136 C-123.5305239 102.45710416 -124.92440924 103.84186493 -126.31782467 105.22709823 C-129.40666886 108.29633657 -132.49984007 111.36113635 -135.5969537 114.42202926 C-136.16677472 114.98740906 -136.73659573 115.55278885 -137.32368405 116.13530136 C-138.09763516 116.86110397 -138.87158627 117.58690658 -139.66899044 118.33470321 C-142.27270441 121.08151983 -144.33774215 123.89108367 -146.49897892 126.98167778 C-156.06260871 140.3455734 -167.83901946 154.48574915 -184.58241208 158.02098251 C-202.25841522 160.66172555 -220.41089481 159.59738529 -238.18967767 158.65623749 C-245.85346656 158.2578741 -253.51862435 158.07086177 -261.19025869 157.89662755 C-276.91338791 157.53503883 -292.61578949 156.92360238 -308.32368405 156.13530136 C-308.32368405 155.47530136 -308.32368405 154.81530136 -308.32368405 154.13530136 C-308.98368405 154.13530136 -309.64368405 154.13530136 -310.32368405 154.13530136 C-310.32368405 152.81530136 -310.32368405 151.49530136 -310.32368405 150.13530136 C-310.98368405 150.13530136 -311.64368405 150.13530136 -312.32368405 150.13530136 C-312.65368405 148.48530136 -312.98368405 146.83530136 -313.32368405 145.13530136 C-313.98368405 145.13530136 -314.64368405 145.13530136 -315.32368405 145.13530136 C-315.32368405 143.81530136 -315.32368405 142.49530136 -315.32368405 141.13530136 C-315.98368405 141.13530136 -316.64368405 141.13530136 -317.32368405 141.13530136 C-317.32368405 139.81530136 -317.32368405 138.49530136 -317.32368405 137.13530136 C-317.98368405 137.13530136 -318.64368405 137.13530136 -319.32368405 137.13530136 C-319.81868405 135.61936386 -319.81868405 135.61936386 -320.32368405 134.07280136 C-322.47665033 128.27955392 -325.53508834 122.94153034 -328.4838403 117.52592636 C-329.09098874 116.40702011 -329.69813717 115.28811386 -330.32368405 114.13530136 C-330.75551999 113.40827011 -331.18735592 112.68123886 -331.6322778 111.93217636 C-332.32368405 110.13530136 -332.32368405 110.13530136 -331.32368405 106.13530136 C-286.11368405 106.13530136 -240.90368405 106.13530136 -194.32368405 106.13530136 C-194.32368405 105.47530136 -194.32368405 104.81530136 -194.32368405 104.13530136 C-193.66368405 104.13530136 -193.00368405 104.13530136 -192.32368405 104.13530136 C-192.32368405 103.47530136 -192.32368405 102.81530136 -192.32368405 102.13530136 C-191.66368405 102.13530136 -191.00368405 102.13530136 -190.32368405 102.13530136 C-190.32368405 101.47530136 -190.32368405 100.81530136 -190.32368405 100.13530136 C-189.66368405 100.13530136 -189.00368405 100.13530136 -188.32368405 100.13530136 C-188.07618405 99.51655136 -187.82868405 98.89780136 -187.57368405 98.26030136 C-186.08628036 95.73171509 -184.88690396 95.41691132 -182.32368405 94.13530136 C-181.2320213 92.20199533 -181.2320213 92.20199533 -180.32368405 90.13530136 C-178.82368405 88.38530136 -178.82368405 88.38530136 -177.32368405 87.13530136 C-176.66368405 87.13530136 -176.00368405 87.13530136 -175.32368405 87.13530136 C-174.33368405 85.15530136 -174.33368405 85.15530136 -173.32368405 83.13530136 C-172.66368405 83.13530136 -172.00368405 83.13530136 -171.32368405 83.13530136 C-171.32368405 82.47530136 -171.32368405 81.81530136 -171.32368405 81.13530136 C-170.66368405 81.13530136 -170.00368405 81.13530136 -169.32368405 81.13530136 C-169.32368405 80.47530136 -169.32368405 79.81530136 -169.32368405 79.13530136 C-168.66368405 79.13530136 -168.00368405 79.13530136 -167.32368405 79.13530136 C-167.32368405 78.47530136 -167.32368405 77.81530136 -167.32368405 77.13530136 C-166.66368405 77.13530136 -166.00368405 77.13530136 -165.32368405 77.13530136 C-164.92149655 76.23811386 -164.92149655 76.23811386 -164.51118405 75.32280136 C-163.32450999 73.13682282 -162.22769292 71.72197542 -160.32368405 70.13530136 C-159.66368405 70.13530136 -159.00368405 70.13530136 -158.32368405 70.13530136 C-158.08101803 69.56797287 -157.83835202 69.00064438 -157.58833249 68.41612411 C-156.0802919 65.69633798 -154.2869231 63.84428571 -152.08930905 61.6421373 C-151.21500241 60.76152633 -150.34069577 59.88091537 -149.43989499 58.97361923 C-148.48474609 58.02204916 -147.52933621 57.070741 -146.57368405 56.11967636 C-145.59455007 55.13919477 -144.61571312 54.15841649 -143.63716061 53.17735458 C-141.58928975 51.12653977 -139.53785621 49.07937501 -137.4838403 47.03471542 C-134.8472839 44.40958328 -132.2198476 41.77553441 -129.59498532 39.13871551 C-127.57748783 37.11400546 -125.55526906 35.09406527 -123.53156979 33.07555557 C-122.56042966 32.10575205 -121.59077976 31.13445394 -120.62263424 30.16166092 C-119.27260571 28.806574 -117.91550432 27.4585445 -116.55805905 26.1108873 C-115.78687741 25.34129684 -115.01569577 24.57170639 -114.22114499 23.77879501 C-112.32368405 22.13530136 -112.32368405 22.13530136 -110.32368405 22.13530136 C-110.10712155 21.59389511 -109.89055905 21.05248886 -109.66743405 20.49467636 C-107.85868408 17.31884792 -105.40644605 14.92802054 -102.82368405 12.38530136 C-102.32481686 11.8786998 -101.82594967 11.37209823 -101.3119653 10.85014511 C-97.57709544 7.13530136 -97.57709544 7.13530136 -95.32368405 7.13530136 C-95.05555905 6.51655136 -94.78743405 5.89780136 -94.51118405 5.26030136 C-93.32368405 3.13530136 -93.32368405 3.13530136 -90.32368405 1.13530136 C-87.75230629 0.81856132 -87.75230629 0.81856132 -84.55017025 0.72590805 C-82.67948486 0.66880566 -82.67948486 0.66880566 -80.77100785 0.6105497 C-79.34872481 0.57906464 -77.92642218 0.54845569 -76.50410397 0.51860214 C-75.75778159 0.50013741 -75.01145921 0.48167267 -74.242521 0.4626484 C-49.50215335 -0.14519686 -24.7461741 -0.01138006 0 0 Z " fill="#FFFFFF" transform="translate(719.3236840479076,369.8646986410022)"/>
<path d="M0 0 C1.10027872 -0.00256327 1.10027872 -0.00256327 2.22278529 -0.00517833 C4.68726241 -0.00847962 7.15146887 0.00254085 9.61592102 0.01345825 C11.37988783 0.01402223 13.14385512 0.01370607 14.90782166 0.01257324 C19.70298655 0.0119982 24.49805187 0.02377702 29.29319358 0.03772116 C34.30203484 0.05020327 39.31087825 0.05139702 44.31973267 0.05377197 C53.80759247 0.05999416 63.29540632 0.07641496 72.78324586 0.09647095 C83.58358718 0.11880699 94.38393068 0.1298176 105.18428934 0.13986182 C127.40411997 0.16078055 149.62390921 0.19597086 171.84370422 0.24050903 C172.95307922 3.97488403 172.95307922 3.97488403 171.96870422 6.36550903 C171.41182922 7.29363403 171.41182922 7.29363403 170.84370422 8.24050903 C170.51370422 8.90050903 170.18370422 9.56050903 169.84370422 10.24050903 C169.18370422 10.24050903 168.52370422 10.24050903 167.84370422 10.24050903 C167.69932922 11.00363403 167.55495422 11.76675903 167.40620422 12.55300903 C166.84370422 15.24050903 166.84370422 15.24050903 165.84370422 18.24050903 C165.18370422 18.24050903 164.52370422 18.24050903 163.84370422 18.24050903 C163.84370422 19.56050903 163.84370422 20.88050903 163.84370422 22.24050903 C163.18370422 22.24050903 162.52370422 22.24050903 161.84370422 22.24050903 C161.68901672 23.01394653 161.68901672 23.01394653 161.53120422 23.80300903 C160.60106556 27.10077338 159.2297491 30.10684235 157.84370422 33.24050903 C157.18370422 33.24050903 156.52370422 33.24050903 155.84370422 33.24050903 C155.84370422 34.56050903 155.84370422 35.88050903 155.84370422 37.24050903 C155.18370422 37.24050903 154.52370422 37.24050903 153.84370422 37.24050903 C153.84370422 38.56050903 153.84370422 39.88050903 153.84370422 41.24050903 C153.18370422 41.24050903 152.52370422 41.24050903 151.84370422 41.24050903 C151.65807922 42.35425903 151.65807922 42.35425903 151.46870422 43.49050903 C150.84370422 46.24050903 150.84370422 46.24050903 148.84370422 50.24050903 C130.36370422 50.57050903 111.88370422 50.90050903 92.84370422 51.24050903 C89.0443949 59.1219736 89.0443949 59.1219736 85.84370422 67.24050903 C85.18370422 67.24050903 84.52370422 67.24050903 83.84370422 67.24050903 C83.84370422 68.56050903 83.84370422 69.88050903 83.84370422 71.24050903 C83.18370422 71.24050903 82.52370422 71.24050903 81.84370422 71.24050903 C81.68901672 72.19957153 81.68901672 72.19957153 81.53120422 73.17800903 C80.60467349 77.30528229 79.22709793 81.24693852 77.84370422 85.24050903 C77.18370422 85.24050903 76.52370422 85.24050903 75.84370422 85.24050903 C75.76120422 85.90050903 75.67870422 86.56050903 75.59370422 87.24050903 C74.78754834 90.46513257 73.54225931 93.00102105 72.01948547 95.93582153 C68.49408647 102.84607207 65.46037455 109.94137602 62.84370422 117.24050903 C62.18370422 117.24050903 61.52370422 117.24050903 60.84370422 117.24050903 C60.69932922 117.98300903 60.55495422 118.72550903 60.40620422 119.49050903 C59.9418293 121.76078643 59.42506854 123.99810383 58.84370422 126.24050903 C58.18370422 126.24050903 57.52370422 126.24050903 56.84370422 126.24050903 C56.65421204 127.07775513 56.65421204 127.07775513 56.46089172 127.93191528 C54.80689595 134.11869695 52.14665991 139.78345182 48.84370422 145.24050903 C47.7589954 147.8826209 46.80193724 150.54833055 45.84370422 153.24050903 C45.18370422 153.24050903 44.52370422 153.24050903 43.84370422 153.24050903 C43.72897766 153.93144653 43.6142511 154.62238403 43.49604797 155.33425903 C42.75723209 158.62575015 41.64174467 161.60216298 40.40620422 164.74050903 C39.97436829 165.84394653 39.54253235 166.94738403 39.09761047 168.08425903 C38.01688287 170.80459517 36.93344089 173.52377018 35.84370422 176.24050903 C35.18370422 176.24050903 34.52370422 176.24050903 33.84370422 176.24050903 C33.71995422 176.98300903 33.59620422 177.72550903 33.46870422 178.49050903 C32.88883721 181.04192388 32.10661683 182.96726634 30.84370422 185.24050903 C30.18370422 185.24050903 29.52370422 185.24050903 28.84370422 185.24050903 C28.84370422 186.56050903 28.84370422 187.88050903 28.84370422 189.24050903 C53.59370422 189.57050903 78.34370422 189.90050903 103.84370422 190.24050903 C104.17370422 191.23050903 104.50370422 192.22050903 104.84370422 193.24050903 C104.18370422 193.24050903 103.52370422 193.24050903 102.84370422 193.24050903 C102.84370422 193.90050903 102.84370422 194.56050903 102.84370422 195.24050903 C102.18370422 195.24050903 101.52370422 195.24050903 100.84370422 195.24050903 C100.84370422 195.90050903 100.84370422 196.56050903 100.84370422 197.24050903 C100.18370422 197.24050903 99.52370422 197.24050903 98.84370422 197.24050903 C98.84370422 197.90050903 98.84370422 198.56050903 98.84370422 199.24050903 C97.38276672 200.52957153 97.38276672 200.52957153 95.46870422 201.86550903 C94.84221985 202.31152466 94.21573547 202.75754028 93.57026672 203.21707153 C91.84370422 204.24050903 91.84370422 204.24050903 89.84370422 204.24050903 C89.63745422 204.81800903 89.43120422 205.39550903 89.21870422 205.99050903 C87.327452 209.08528539 84.94334486 210.43238533 81.84370422 212.24050903 C81.18370422 212.24050903 80.52370422 212.24050903 79.84370422 212.24050903 C79.65807922 212.79738403 79.47245422 213.35425903 79.28120422 213.92800903 C77.20259596 217.2718571 74.2355682 219.28858731 70.84370422 221.24050903 C70.18370422 221.24050903 69.52370422 221.24050903 68.84370422 221.24050903 C68.84370422 221.90050903 68.84370422 222.56050903 68.84370422 223.24050903 C68.18370422 223.24050903 67.52370422 223.24050903 66.84370422 223.24050903 C66.84370422 223.90050903 66.84370422 224.56050903 66.84370422 225.24050903 C66.18370422 225.24050903 65.52370422 225.24050903 64.84370422 225.24050903 C64.84370422 225.90050903 64.84370422 226.56050903 64.84370422 227.24050903 C61.84370422 229.24050903 61.84370422 229.24050903 58.84370422 229.24050903 C58.84370422 229.90050903 58.84370422 230.56050903 58.84370422 231.24050903 C52.10815468 235.7308754 42.14018895 234.38376754 34.28901672 234.33425903 C33.17664642 234.33067383 32.06427612 234.32708862 30.91819763 234.32339478 C16.89551092 234.25837291 2.87455937 234.01805866 -11.14598083 233.77694702 C-14.77439279 233.71503014 -18.40284603 233.65563103 -22.03129578 233.59597778 C-29.07300313 233.47985914 -36.11466351 233.36110252 -43.15629578 233.24050903 C-44.06971814 230.29459413 -44.25870008 229.50117454 -43.08207703 226.50613403 C-42.54969421 225.51097778 -42.0173114 224.51582153 -41.46879578 223.49050903 C-40.63735046 221.90496216 -40.63735046 221.90496216 -39.78910828 220.28738403 C-39.25028015 219.28191528 -38.71145203 218.27644653 -38.15629578 217.24050903 C-35.11706192 211.45066182 -35.11706192 211.45066182 -33.15629578 205.24050903 C-32.49629578 205.24050903 -31.83629578 205.24050903 -31.15629578 205.24050903 C-31.06090515 204.58953247 -30.96551453 203.93855591 -30.86723328 203.26785278 C-29.92418415 199.25212161 -28.37730864 195.5984859 -26.78129578 191.80300903 C-26.47707703 191.06502075 -26.17285828 190.32703247 -25.85942078 189.56668091 C-24.11336443 185.36943008 -22.24130857 181.28362081 -20.15629578 177.24050903 C-19.76442078 176.45675903 -19.37254578 175.67300903 -18.96879578 174.86550903 C-18.70067078 174.32925903 -18.43254578 173.79300903 -18.15629578 173.24050903 C-17.49629578 173.24050903 -16.83629578 173.24050903 -16.15629578 173.24050903 C-16.03383484 172.53539185 -15.9113739 171.83027466 -15.78520203 171.10379028 C-13.3092436 159.83125908 -7.40060723 149.42203263 -2.15629578 139.24050903 C1.2135465 132.65949418 4.39443795 126.2209179 6.84370422 119.24050903 C7.50437141 117.57145508 8.16808675 115.90356744 8.84370422 114.24050903 C9.50370422 114.24050903 10.16370422 114.24050903 10.84370422 114.24050903 C10.93909485 113.57921997 11.03448547 112.91793091 11.13276672 112.23660278 C12.05172013 108.36387057 13.59113875 104.92467848 15.21870422 101.30300903 C15.52292297 100.61271606 15.82714172 99.9224231 16.14057922 99.21121216 C20.55832204 89.25241159 20.55832204 89.25241159 23.28120422 84.99050903 C24.61336694 82.64590265 25.5669146 80.49427858 26.53120422 77.99050903 C30.08032226 68.84842289 34.46000568 60.00790613 38.84370422 51.24050903 C8.15370422 50.91050903 -22.53629578 50.58050903 -54.15629578 50.24050903 C-54.65129578 48.75550903 -54.65129578 48.75550903 -55.15629578 47.24050903 C-53.78129578 45.74050903 -53.78129578 45.74050903 -52.15629578 44.24050903 C-51.49629578 44.24050903 -50.83629578 44.24050903 -50.15629578 44.24050903 C-49.9019426 43.66116608 -49.64758942 43.08182312 -49.38552856 42.48492432 C-48.02099002 39.99345875 -46.49801068 38.33497574 -44.48857117 36.3298645 C-43.73761673 35.57583344 -42.98666229 34.82180237 -42.21295166 34.04492188 C-41.40148178 33.24063751 -40.5900119 32.43635315 -39.75395203 31.60769653 C-38.92044724 30.77464996 -38.08694244 29.94160339 -37.22817993 29.08331299 C-35.46610492 27.3242575 -33.70160166 25.56763156 -31.93486023 23.81326294 C-29.22750882 21.12416334 -26.52824024 18.4271526 -23.8301239 15.72879028 C-22.11770445 14.02128637 -20.40482912 12.31423951 -18.69145203 10.60769653 C-17.47728355 9.3951973 -17.47728355 9.3951973 -16.23858643 8.15820312 C-15.48447983 7.41047638 -14.73037323 6.66274963 -13.95341492 5.8923645 C-13.29104324 5.23380463 -12.62867157 4.57524475 -11.94622803 3.89672852 C-7.89571733 0.1488019 -5.40110165 -0.00755927 0 0 Z " fill="#FFFFFF" transform="translate(659.1562957763672,475.7594909667969)"/>
<path d="M0 0 C64.35 0 128.7 0 195 0 C196 3 196 3 195 6 C194.34 6 193.68 6 193 6 C192.855625 6.7425 192.71125 7.485 192.5625 8.25 C192.09812508 10.52027739 191.58136431 12.75759479 191 15 C190.34 15 189.68 15 189 15 C189 16.32 189 17.64 189 19 C188.34 19 187.68 19 187 19 C186.91234375 19.65484375 186.8246875 20.3096875 186.734375 20.984375 C185.75329153 25.01307947 184.04507887 28.52516018 182.25 32.25 C181.89091553 33.00563232 181.53183105 33.76126465 181.16186523 34.53979492 C178.92145929 39.21321636 176.57293549 43.7882807 173.91015625 48.23828125 C172.93019488 50.13511636 172.43697691 51.9163101 172 54 C171.34 54 170.68 54 170 54 C169.855625 54.5775 169.71125 55.155 169.5625 55.75 C169.04166667 57.83333333 168.52083333 59.91666667 168 62 C167.34 62 166.68 62 166 62 C165.89429688 62.70125 165.78859375 63.4025 165.6796875 64.125 C164.90692319 67.3937042 163.65657401 70.01304969 162.125 73 C161.61195313 74.010625 161.09890625 75.02125 160.5703125 76.0625 C159.545704 77.97918058 158.47287338 79.87106739 157.34765625 81.73046875 C156.07804361 83.86857004 155.44959172 85.5722047 155 88 C154.34 88 153.68 88 153 88 C153 89.32 153 90.64 153 92 C152.34 92 151.68 92 151 92 C151 93.32 151 94.64 151 96 C150.34 96 149.68 96 149 96 C148.8453125 97.0828125 148.8453125 97.0828125 148.6875 98.1875 C147.86149044 101.56663003 146.49110919 104.50889081 144 107 C142.64905018 107.09268999 141.29332909 107.11747326 139.93920898 107.11352539 C139.07839218 107.11344986 138.21757538 107.11337433 137.33067322 107.11329651 C136.39526199 107.10813522 135.45985077 107.10297394 134.49609375 107.09765625 C133.54307877 107.0962413 132.59006378 107.09482635 131.60816956 107.09336853 C128.55124835 107.08775152 125.49439923 107.07519616 122.4375 107.0625 C120.37044376 107.05748719 118.30338638 107.05292391 116.23632812 107.04882812 C111.15752412 107.03777656 106.0787743 107.02050055 101 107 C101.69099656 104.11697682 102.55431319 101.55186785 103.77734375 98.84765625 C104.12603516 98.07099609 104.47472656 97.29433594 104.83398438 96.49414062 C105.19814453 95.69169922 105.56230469 94.88925781 105.9375 94.0625 C109.09936238 87.08694058 109.09936238 87.08694058 112 80 C112.66 80 113.32 80 114 80 C114 78.68 114 77.36 114 76 C114.66 76 115.32 76 116 76 C116.17789063 74.95585938 116.17789063 74.95585938 116.359375 73.890625 C117.06564889 70.7037794 118.0861554 67.79956749 119.25 64.75 C119.64703125 63.69296875 120.0440625 62.6359375 120.453125 61.546875 C122.33895426 57.22280186 124.70902301 53.12375859 127 49 C108.19 49 89.38 49 70 49 C73.40782589 56.54397369 73.40782589 56.54397369 77 64 C77 65.32 77 66.64 77 68 C77.66 68 78.32 68 79 68 C79.79423861 69.56119422 80.58527123 71.12401964 81.375 72.6875 C81.81585937 73.55761719 82.25671875 74.42773438 82.7109375 75.32421875 C84.73143285 79.51827729 86 82.27628914 86 87 C86.66 87 87.32 87 88 87 C88 88.32 88 89.64 88 91 C88.66 91 89.32 91 90 91 C90 92.32 90 93.64 90 95 C90.66 95 91.32 95 92 95 C93.49821059 98.37097383 94 100.20442119 94 104 C94.66 104 95.32 104 96 104 C95.505 105.485 95.505 105.485 95 107 C80.48 107 65.96 107 51 107 C50.67 105.35 50.34 103.7 50 102 C49.34 102 48.68 102 48 102 C48 100.68 48 99.36 48 98 C47.34 98 46.68 98 46 98 C45.608125 96.865625 45.21625 95.73125 44.8125 94.5625 C43.34166578 90.6100687 41.44798117 87.07996861 39.28125 83.46875 C37.88117042 80.77103569 36.89377172 77.99305456 35.85302734 75.14208984 C34.38664124 71.45975679 32.459736 68.03692901 30.5625 64.5625 C25.82601514 55.74443406 21.46569297 46.77096818 17.19946289 37.71704102 C14.65573901 32.34321375 12.02355459 27.08647217 9.0402832 21.94189453 C7.67681593 19.39671295 6.76767024 16.77206619 5.82421875 14.05078125 C4.53587732 10.84519238 2.76282194 7.93803657 0.98828125 4.98046875 C0 3 0 3 0 0 Z " fill="#FFFFFF" transform="translate(453,554)"/>
</svg>
